<svg xmlns="http://www.w3.org/2000/svg" viewBox="0 0 640 353" width="640" height="353" role="img">
<title>Where the North &amp; Central Florida region reaches</title>
<desc>North to the Georgia line, west along the panhandle to Pensacola, and south to about Lake Okeechobee, where the subtropical south begins. Boundary data: US EPA Level III Ecoregions of the Conterminous United States (2011), public domain.</desc>
<style>
  .land { fill: #e6e2d5; stroke: #bdb6a3; stroke-width: 1.2; stroke-linejoin: round; }
  .admin { fill: none; stroke: #cfcabb; stroke-width: 1; stroke-linejoin: round; }
  /* One region is often a dozen Level III ecoregions, and they are drawn as one
     path with a subpath each — so a heavy stroke outlines every *internal* seam
     as boldly as the region's own edge. On the Mid-Atlantic, which is fifteen of
     them, that read as a shattered windscreen. The seams are still drawn, because
     the legend says the region is several ecoregions and the picture should agree,
     but at a third the weight and much closer to the fill: fine internal texture,
     not fifteen borders competing with the coastline. */
  .cover { fill: #175e33; fill-opacity: 0.45; stroke: #2f6b45; stroke-opacity: 0.5;
           stroke-width: 0.7; stroke-linejoin: round; }
  .cover-box { fill: #175e33; fill-opacity: 0.26; stroke: #0d3d20; stroke-width: 2;
               stroke-dasharray: 9 7; stroke-linejoin: round; }
  .pin { fill: #14140f; stroke: #f7f5ef; stroke-width: 2.5; }
  .pin-label { font: 600 23px system-ui, -apple-system, "Segoe UI", Roboto, sans-serif;
               fill: #14140f; stroke: #f7f5ef; stroke-width: 5; paint-order: stroke;
               stroke-linejoin: round; dominant-baseline: central; }
  @media (prefers-color-scheme: dark) {
    .land { fill: #2e3325; stroke: #545d43; }
    .admin { stroke: #434b36; }
    .cover { fill: #7ec894; fill-opacity: 0.42; stroke: #a6d8b6; stroke-opacity: 0.45; }
    .cover-box { fill: #7ec894; fill-opacity: 0.22; stroke: #b9e6c6; }
    .pin { fill: #f2f1e8; stroke: #14160f; }
    .pin-label { fill: #f2f1e8; stroke: #14160f; }
  }
</style>
<path class="land" fill-rule="evenodd" d="M474.5 0L474.2 0.3L471.1 2.4L469.7 2.1L468.9 0.2L468.8 0L461.5 0L462.2 1.8L463.7 3.6L465.2 4.7L465.6 6.4L462.6 10.6L461 11.5L458.2 12.2L456.7 14.7L457.1 16.9L454.7 21.7L448.9 24.6L447.1 24.5L445.7 25.4L446.5 27.5L448 29L447.9 30.5L446.4 32.4L443.3 33L441.6 35.2L442.2 37.3L443.2 38.4L443 40.4L439.5 42.4L438.7 44.4L440.4 45L441.7 44.4L442.7 44.8L440.6 48.2L438.8 50.2L437 53.8L432.9 54.8L433 56L435.4 57L437.3 59.8L433.7 64.9L431.4 64.5L430 63.4L429.1 67.4L429.5 69.6L428.6 74L427.2 79.3L426.3 81.4L426.5 85.5L427 89.4L429.3 94.4L432.7 114.9L435 122L439.2 141.1L446.1 159.6L455.8 181.8L471.8 208.7L473.7 212.5L471.6 215.7L471 219L470.8 224.1L471.4 229L473.3 235L476.9 244.1L474.9 242.3L469.6 229.2L469 221.4L469.8 210.5L468.5 210.7L467.5 214.3L467 218.5L465.7 220.1L463.8 213.7L464 210.8L465.9 207.5L465.3 206.2L462.2 204.5L461.5 201.8L462 199.1L460.2 197.7L458.8 197.7L459.7 204.4L461.2 208.4L463 218.2L466 224.1L467.7 229L487.9 281.4L492.7 288L494.5 292.8L496.3 302.8L496.7 315.5L493.4 338.8L492.8 352.6L491.9 352.6L491.9 352.4L491.1 352.2L491 352.6L427.4 352.6L424 351.5L417 346.6L412.4 338L409.8 322.6L406.7 320.9L405.4 319.7L408.4 314L411.6 309.2L409 310.4L407.2 312.2L404.8 316.4L403.1 317L401.5 316.4L399.7 308.3L400.2 298.3L402.8 294.5L398.8 294.4L394.8 295.9L395.4 299.2L394.8 301L391.8 300.6L389.6 299.4L386.5 295.9L382.4 289.3L373.8 271L372.2 268.4L369.3 265.7L370.7 264.9L373.1 264.4L378.6 256.1L382.9 251.1L384.3 247.6L384.1 246.2L382.2 244L379.7 245.9L378.6 245.3L375.8 241L373.1 239.8L371.2 240.7L373.2 244.3L375 245.6L374.3 250.8L373.6 252.5L371.9 253.9L369.3 253.1L368 254.4L366.4 253.1L364.9 250.8L363.2 247.1L367.7 226L371.9 212.5L372.4 197.1L372.7 194.8L372.4 190.7L366.7 181.7L341.9 159.9L322.7 133.8L306 124.1L293.3 126.2L291.1 128.2L290.2 130.8L291 133.7L289.8 134.9L286.4 134.7L281.9 135.4L269.9 142.3L265.7 142L261.9 143.8L259 145.1L251.6 145.8L245.2 147.3L242.5 146.5L240.7 142.6L240.7 138.4L242.2 141.6L244.4 144.1L245.4 143.1L245.8 140.9L243.6 136.6L236.4 131.1L228.2 123.1L230.7 123.3L231.4 121.6L228.8 119.3L229.9 116.7L231.7 114L228.2 114.4L225.1 116.3L225 118.7L224.4 120.6L222.7 120.3L219.7 118L204.4 111.4L191.1 107.8L201.3 106.1L206.9 107.4L206.2 105.4L204.9 104.2L200.5 102.6L194.9 103.2L191.4 102.4L187.8 104L183.9 106.4L180.4 107.6L166.7 109.2L155.5 111.1L157.3 109.1L159.2 107.9L165.8 106L166.8 102.1L165.2 98.3L163.5 99.2L161.7 102.2L159.5 100L157 100L156.3 104.8L153.2 107.9L151.7 111.1L142.4 113.6L141.3 112.7L144 109.7L143.8 108L140.7 109.5L135.5 115.2L117.2 117.1L118.2 115.8L122 115.5L127.5 113.7L126.4 110.7L124.3 107.3L122.3 106.9L121.1 105L121.1 98.8L119.9 95.2L116.9 91.4L115.9 92.2L113.7 98.5L111.9 106.9L111 109.6L105.6 109.8L100.8 109.2L84.5 110.2L78.4 107.4L75.9 106.8L74.3 106.9L67.2 109.5L59.2 111.5L57.3 110.8L54.5 110.7L48.7 117.5L41.8 120.6L24.3 115L20 110.4L16.2 109.4L11.4 108.9L6.3 114.5L2.5 122.1L8.6 126.2L13.8 128.2L22.4 126.5L27.2 122.8L31.1 123L33 122.2L34.7 120.3L38 121.8L38.1 123.3L35.8 125.5L32.8 127.3L31 129.4L34.4 133.6L39.7 135.1L41.7 134.5L43 129.7L46.3 126.6L50.7 127.2L50.1 129.2L50.7 131L52.8 134.1L52.5 138.6L52.9 139.7L48.1 141.6L44.5 142.3L41.7 144.9L43.2 146.4L40.2 147.7L38.3 147.2L37.3 147.6L37 149.2L35.5 150.7L37.7 155.1L42.2 158L45.3 161.6L58.1 166.3L61.2 166.2L64.2 171L66.7 172.6L69.1 173.5L68.8 176.7L64.6 179.2L63.5 182L62.4 183.6L60.5 181.6L58.6 180.1L54.1 184.6L51.9 185.5L53 180.7L51.3 178.8L48.7 173.9L44.9 170.9L42.3 169.9L40.3 168L37.8 167.3L35.6 167.5L32.1 166.3L31.8 163.8L30.8 161.8L28 159.5L14.6 155.2L14.5 157L15.4 158.3L17.4 159.2L19.7 161L19.6 166.1L18.6 168.3L18.2 171.5L17.3 174.6L15.7 177.1L12 178.8L10.4 177.4L7.8 170.6L4.1 168.4L0 168.3L0 0ZM401.6 321.6L399.9 323L396.5 322L394.6 320.2L393.8 316.6L396.8 320.4L397.9 321.2L401.6 321.6ZM399.4 316.4L399.3 319.5L396.9 314.3L395.3 308.5L397.6 310.3L399.4 316.4ZM431.1 76.1L429 89.6L428 84.8L428 80.1L429.6 77.4L431.1 76.1ZM489.8 277.6L490.6 281.5L486.2 272.4L480.8 258L477.9 246.8L479.8 249.8L481.8 256.1L489.8 277.6ZM75.1 145.6L72.5 148.4L72.6 147.3L74.5 144.5L75.9 143.4L75.1 145.6ZM90.9 117.9L90.3 118.5L86.1 117.4L83.5 116.3L83 115.2L90.1 117.2L90.9 117.9ZM114.1 115.9L109.9 117.1L103.7 116.9L102.4 116.5L104.9 115.7L112.3 114.7L114.1 115.9ZM59.1 125.1L59.3 127.7L57 126.4L53.5 126.3L55 125.4L56.1 124.6L56.6 123.7L61 120.5L59.8 122.8L59.1 125.1ZM78 140.3L76.7 142.1L78 133.7L76.2 126.7L78.1 129.8L78.7 133.4L78 140.3ZM264.8 149.4L260 151.4L254.9 149.9L258.1 149.7L260.4 150.3L266.3 147.4L269.4 145.3L273 144.5L264.8 149.4ZM630.9 350.8L629.9 351.3L625.8 346L622.5 344.4L627.7 340.7L629.9 337.4L629.9 330.4L631.1 326.5L630.7 323.2L631.8 319.8L630.3 315.9L625.9 312.9L617.3 300.7L603.7 297.8L596.7 297.6L600.6 295.7L604.1 295.9L609.6 297.1L616.2 297.6L620.3 301.2L624.1 306L627.6 307.9L629 309.1L628.8 310.5L629.4 311.8L633.9 314L638.5 317.6L639.8 328L633.7 333L632.6 348.1L630.9 350.8ZM570.5 307L576.3 308.6L579.4 308.4L581.2 307.3L589.8 307.7L596.7 306.1L597.7 309L597.5 310.5L582.9 311.8L569.4 316L562 318.8L558.6 319.1L555.9 317.7L547 309.1L549.4 309.9L556 314.8L560.1 313.9L563.8 310.7L564.4 308.3L563.9 307.1L565.6 303.3L570.5 307Z"/>
<path class="admin" d="M111.9 115.1L102.5 117.1L113.9 116.1L111.9 115.1ZM97.5 0L94.9 24.5L98.6 108.5L111.4 111.1L117.6 86.9L121.9 107L129.2 114.2L116.1 117.5L140.6 113.2L146.6 105.2L146.4 94.4L135.3 83L136.6 74.6L260.3 74.4L255.3 64.1L258.5 44.2L253.7 26.6L257.5 11.1L265.8 4L260.2 0.3L260.3 0ZM416.3 347.1L416.3 350.6L420.1 350.8L416.3 347.1ZM394.3 317L397.4 322.6L402.7 321.7L394.3 317ZM391.5 308.1L390.9 309.7L392.8 313.2L391.5 308.1ZM397.5 308.6L394.7 309.5L400.5 319.5L397.5 308.6ZM377 276.5L376.3 277.7L379 281.3L377 276.5ZM370.6 268.9L375.3 274.9L374 272.2L370.6 268.9ZM368.5 263.9L370.6 268.7L369.7 264.4L368.5 263.9ZM484.9 267.4L483.6 267.9L491.3 283.4L484.9 267.4ZM363.7 240.6L362.9 246.3L366 250.5L363.7 240.6ZM477.4 246.3L483.2 265.8L485.1 267.1L477.4 246.3ZM467.1 216.7L463.8 216.9L469.9 231.1L467.1 216.7ZM470.5 216.7L469.5 229.7L476.9 246.5L470.5 216.7ZM371.4 191.9L369.1 193.9L371.6 194.1L371.4 191.9ZM255 146.9L249.8 147.4L254.6 150.2L255 146.9ZM274.2 143.7L255.8 150.4L260.4 151.8L274.2 143.7ZM280.8 139.3L276 141.8L280.5 140.4L280.8 139.3ZM150.2 111.7L144.2 112.6L140.4 114.4L150.2 111.7ZM184.6 107.7L150.7 111.6L188.2 108.4L184.6 107.7ZM438 135.1L436.4 137.6L440.1 145.9L438 135.1ZM455.1 183.8L436.4 139.2L430.7 91.1L427.2 89.8L402.6 86.1L401.6 109.3L395.7 110.1L393.2 98.4L266.9 90.5L260.3 74.4L136.6 74.6L135.2 82.9L145.8 92.5L143.7 101.4L148.9 106L141.4 112.5L152.5 110.7L148.4 109.9L156.7 106.3L156.1 97.6L160.7 105.6L165.7 97.8L164.1 101.9L171.1 105.5L156.4 110.9L184.1 107.7L189 101L192.7 104.9L203.3 102L207.2 108.8L188.3 108.1L225.4 123.1L219.9 114.2L231.5 114.4L225.5 120.1L241.8 126.9L227.7 123L245.3 138.6L243.3 147.5L240.5 138.8L244 148.7L291.6 135.4L286.9 130.4L291.8 131.4L289.7 127.6L295.8 123.9L308.1 124L325.3 136L352.4 174.2L365.1 175.4L366.4 187.7L373.3 191.1L363 245.7L371.1 255.2L375.6 245.3L368.6 242.3L370.2 236.8L378.2 242.1L378 247.8L383.8 241.3L384.6 251.4L370.4 267L376.2 270.9L384.5 293.6L395.5 304.2L393.4 294.7L400.4 295L401.9 317.7L414 308.1L402.8 320L410.3 322.1L415.8 347.1L427 352.6L492.3 352.6L492.9 351L497.2 303.4L491.1 283.7L483.3 279.7L489.8 283.1L459.6 203.6L464.1 206L464.4 216.8L470.4 207.5L468.2 216.6L473.6 214.3L471.3 207.2L455 180.5L468.4 203.2L463.1 198.5L459.6 203.5L458.2 195.5L463 198.5L455.1 183.8ZM428.9 76.2L426.9 76.6L427.2 78.7L428.9 76.2ZM431.8 76.8L426.7 81L429.4 90.3L431.8 76.8ZM431.8 71.1L431.5 67.7L430.4 73.7L431.8 71.1ZM432.5 60.9L431 60.8L430.9 63.9L432.5 60.9ZM435 57.2L431.5 66.9L438.7 60L435 57.2ZM437.2 54L435.6 56L438.9 56.9L437.2 54ZM442 44.7L437 47.2L437.7 53.1L442 44.7ZM445.9 26.8L444.5 34.2L449.3 29.1L445.9 26.8ZM260.3 0L260.2 0.3L265.8 4L257.5 11.1L254 24.7L258.5 44.2L255.3 64.1L266.9 90.5L393.2 98.4L394.2 108.9L400.3 110.2L402.3 86.3L427.2 89.8L426.3 76L433.3 56.5L430.2 55.6L435.4 55.9L437 44.6L444.8 39.5L438 30.4L443.4 33.8L444.3 26.6L451.4 26.6L454.4 23.7L449.8 22.3L458.6 17.2L445.5 12L443.4 0ZM58.2 177.3L57 180L58.9 179.7L58.2 177.3ZM58.4 176.8L61.5 183L59.5 177.1L58.4 176.8ZM63.8 171.8L57.2 174.1L59.8 176.5L63.8 171.8ZM53.4 169.9L53.7 174.1L57 177.9L53.4 169.9ZM63.2 169.1L60.2 172.7L63.8 170.9L63.2 169.1ZM61.2 166.6L57.5 173.7L63.2 168.9L61.2 166.6ZM60.2 165.3L58.3 167.7L58.6 170.6L60.2 165.3ZM18.5 156.6L16 157.7L19.9 158.5L18.5 156.6ZM75.6 126.8L76.8 141.9L78.5 133.4L75.6 126.8ZM44.5 119.6L40.1 121.1L41.7 121.5L44.5 119.6ZM0 167.9L1.1 165.5L10.8 171.7L11.4 179.9L19.8 174.2L15.5 167L20.5 168L19.3 159.8L11 157.3L13.9 153L23.1 159.6L29 157.9L32.9 162.7L30.2 167.4L39.3 166.7L49.8 176.9L52.8 168.9L57.3 173.5L57.2 165.6L42.9 163.1L45.1 159.5L35.3 151.4L39.3 147.2L46.7 150.5L38.9 143.4L49.4 147.6L47.3 141.6L56.9 143.1L49.9 139.9L53.7 136L49.4 126.9L39.2 137.3L29.2 131L42.2 119.6L29.2 93.2L35 74.3L0 74.3ZM12.2 108.6L34.2 121.2L20.6 128L4.5 126.8L1.8 119.5L12.2 108.6ZM66.6 116.8L62.5 117.1L65.3 118.6L66.6 116.8ZM0 0L0 74.3L35 74.2L29.2 93.2L42.6 119.8L48.7 119.5L53.8 109.2L56.4 113.1L77 105.8L82.7 110.9L98.7 110.5L94.9 24.5L97.5 0ZM458.8 10.3L455.7 13.4L457.1 14L458.8 10.3ZM464.2 3.3L459.5 12.4L466.8 6.4L464.2 3.3ZM473.5 0L470.9 3.1L475.1 0ZM467.6 0L468.6 4.2L472.6 0ZM443.4 0L445.5 12L455.4 15.9L462.5 2.9L461.6 0Z"/>
<path class="cover" fill-rule="evenodd" d="M131.8 74.5L131.8 112L132.8 112.9L143.6 107.2L143.6 99L154.3 99.4L152.7 91.6L157.2 96.8L172.9 94.9L167.1 101.5L174.6 103.9L188.8 98.1L216.7 99L219.2 91.4L219.8 103.4L228.2 109.2L244.1 106.6L266.1 114.3L288.9 102.3L295.1 107.9L315.8 110.7L316.7 99.6L326.5 101.7L328 109.7L337.3 107L345.2 127.6L375.5 137.6L378.9 132.7L376.2 119.6L352.8 96.6L351 83.1L343.5 82.5L347.4 74.5ZM377 276.5L376.3 277.7L379 281.3L377 276.5ZM370.6 268.9L375.3 274.9L374 272.2L370.6 268.9ZM368.5 263.9L370.6 268.7L369.7 264.4L368.5 263.9ZM484.9 267.4L483.6 267.9L490.5 281.8L490.7 281.8L484.9 267.4ZM363.7 240.6L362.9 246.3L366 250.5L363.7 240.6ZM477.4 246.3L483.2 265.8L485.1 267.1L477.4 246.3ZM467.1 216.7L463.8 216.9L469.9 231.1L467.1 216.7ZM470.5 216.7L469.5 229.7L476.9 246.5L470.5 216.7ZM371.4 191.9L369.1 193.9L371.6 194.1L371.4 191.9ZM255 146.9L249.8 147.4L254.6 150.2L255 146.9ZM274.2 143.7L255.8 150.4L260.4 151.8L274.2 143.7ZM280.8 139.3L276 141.8L280.5 140.4L280.8 139.3ZM150.2 111.7L144.3 112.6L138.9 114.4L150.2 111.7ZM184.6 107.7L150.7 111.6L188.2 108.4L184.6 107.7ZM438 135.1L436.4 137.6L440.1 145.9L438 135.1ZM428.9 76.2L426.9 76.6L427.2 78.7L428.9 76.2ZM431.8 76.8L426.7 81L429.4 90.3L431.8 76.8ZM455.1 183.8L436.4 139.2L430.7 91.1L425.6 84.1L428.3 74.5L347.4 74.5L343.5 82.5L351 83.1L352.8 96.6L376.2 119.6L378.9 132.7L375 137.9L345.2 127.6L337.3 107L328 109.7L326.5 101.7L316.7 99.6L315.8 110.7L295.1 107.9L288.9 102.3L266.1 114.3L244.1 106.6L228.2 109.2L219.8 103.4L219.2 91.4L216.7 99L188.8 98.1L174.6 103.9L167.1 101.5L172.9 94.9L157.2 96.8L152.7 91.6L154.3 99.4L143.6 99L143.6 107.2L132.8 112.9L131.8 112L131.8 115.6L138.5 114.8L146.1 106.4L144.3 102.2L148.9 106.1L141.4 112.5L152.4 110.8L148.4 109.9L156.7 106.3L156.1 97.6L160.7 105.6L165.7 97.8L164.1 101.9L171.1 105.5L156.4 110.9L184.1 107.7L189 101L192.7 104.9L203.3 102L207.2 108.8L188.3 108.1L225.4 123.1L219.9 114.2L231.5 114.4L225.5 120.1L241.8 126.9L227.7 123L245.3 138.6L243.3 147.5L240.5 138.8L244 148.7L291.5 135.5L286.8 130.6L291.8 131.4L291.9 125.7L308.1 124L336.6 147.7L336.9 156.2L353.2 175L365.1 175.4L366.4 187.7L373 190.5L371.6 215.3L363 245.7L371.1 255.2L375.6 245.3L368.6 242.3L370.2 236.8L378.2 242.1L378 247.8L383.8 241.3L384.6 251.4L370.4 267.1L376.2 270.9L380.9 281.8L459.3 281.8L459.3 281.7L459.4 281.8L487.4 281.8L483.3 279.7L487.2 281.8L489.2 281.8L459.6 203.6L464.1 206L464.4 216.8L470.4 207.5L468.2 216.6L473.6 214.3L471.3 207.1L455 180.5L468.4 203.2L463.1 198.5L459.6 203.5L458.2 195.5L463 198.5L455.1 183.8Z"/>
<circle class="pin" cx="154.6" cy="106.6" r="5"/>
<text class="pin-label" x="165.6" y="106.6" text-anchor="start">Pensacola</text>
<circle class="pin" cx="294.7" cy="105.5" r="5"/>
<circle class="pin" cx="419.6" cy="111.6" r="5"/>
<text class="pin-label" x="430.6" y="111.6" text-anchor="start">Jacksonville</text>
<circle class="pin" cx="432.9" cy="209.5" r="5"/>
<text class="pin-label" x="443.9" y="209.5" text-anchor="start">Orlando</text>
<circle class="pin" cx="381.5" cy="241.5" r="5"/>
<text class="pin-label" x="392.5" y="241.5" text-anchor="start">Tampa</text>
</svg>
